<svg xmlns="http://www.w3.org/2000/svg" viewBox="0 0 533 187"><g fill="none" stroke-width="2"><path stroke="#80d5f7" d="M186.96 126.75c-1.08-.12-2.6-.13-3.6-.41q-29.3-8.16-57.55-19.23a.38.38 0 0 1-.19-.54q10.19-18.06 15.12-38.21a.7.7 0 0 0-.68-.86h-35.41a.6.6 0 0 1-.6-.6l-.07-12.14a.51.51 0 0 1 .51-.51h44.13a.63.62 0 0 0 .63-.62v-6.15a.53.52 90 0 0-.52-.53l-44.06.07a.67.67 0 0 1-.67-.67v-21.1a.5.5 0 0 0-.5-.5l-18.45-.01a2.72 2.71-89.9 0 0-2.71 2.71l-.1 19.07a.45.45 0 0 1-.45.45l-44.41.02a.63.63 0 0 0-.63.63v6.11a.48.47 0 0 0 .48.47l44.47.2a.55.55 0 0 1 .55.55v11.96a.6.6 0 0 1-.6.6l-36.27-.02a.63.63 0 0 0-.63.63v6.38a.5.5 0 0 0 .5.5h72.03a.39.39 0 0 1 .37.5q-3.87 12.88-10.18 24.76a.66.65 23.3 0 1-.79.31C90.15 95.18 69.87 89.14 53.5 89.3c-19.44.18-37.56 10.69-39.39 31.25-1.49 16.78 9.82 29.57 25.41 33.96 22.92 6.45 47.83-3.92 64.52-20.23q4.91-4.8 9.62-9.98a.69.68-56.1 0 1 .79-.16q35.94 16.63 72.51 31.61" vector-effect="non-scaling-stroke"/><path stroke="#5a5857" d="M277.96 14.75q-7.8.3-15.52-.62m-36.19 41.33-.17-7.52m267.17-34.15.05 9.36a.64.63 3.8 0 0 .54.61q.31.04.62-.26m16.33 11.25q1.08-.95.93-2.96a1.95 1.93-2.1 0 0-1.94-1.79H457.3a.55.54 81.9 0 0-.52.7q.14.47.41.57m-.23 9.48q-1.45.48-2.96.44-8.15-.22-16.29.06M419 32.96l-.22.24q-.22.24.11.3 3.33.61 6.91.21m-66.76.29 41.57-.18a.73.72-76.8 0 0 .65-.41l.2-.41M251 131.29q-1.89 1.15-3.75 0m147-.25-.28.33a.94.92-69.1 0 1-.7.32l-6.73.06m113.06-.15-7.95.32m15.85 16.04q-.56.74.28 1.31a.58.58 0 0 0 .86-.25q.33-.72-.14-1.06m15.93-16.06q-2.92.24-5.18-.61" vector-effect="non-scaling-stroke"/><path stroke="#80d5f7" d="M26.43 109.43c-13.08 13.24-2.62 29.59 12.6 33.07 23.82 5.45 44.26-8.09 58.13-26.3a.41.4-57.6 0 0-.13-.61c-19.72-10.18-47.08-21.28-68.32-8.24-.8.49-1.61 1.4-2.28 2.08" vector-effect="non-scaling-stroke"/></g><path fill="#0ae" d="M24.31 0h138.5c11.88 3.38 24.12 13.79 24.13 26.96l.02 99.79c-1.08-.12-2.6-.13-3.6-.41q-29.3-8.16-57.55-19.23a.38.38 0 0 1-.19-.54q10.19-18.06 15.12-38.21a.7.7 0 0 0-.68-.86h-35.41a.6.6 0 0 1-.6-.6l-.07-12.14a.51.51 0 0 1 .51-.51h44.13a.63.62 0 0 0 .63-.62v-6.15a.53.52 90 0 0-.52-.53l-44.06.07a.67.67 0 0 1-.67-.67v-21.1a.5.5 0 0 0-.5-.5l-18.45-.01a2.72 2.71-89.9 0 0-2.71 2.71l-.1 19.07a.45.45 0 0 1-.45.45l-44.41.02a.63.63 0 0 0-.63.63v6.11a.48.47 0 0 0 .48.47l44.47.2a.55.55 0 0 1 .55.55v11.96a.6.6 0 0 1-.6.6l-36.27-.02a.63.63 0 0 0-.63.63v6.38a.5.5 0 0 0 .5.5h72.03a.39.39 0 0 1 .37.5q-3.87 12.88-10.18 24.76a.66.65 23.3 0 1-.79.31C90.15 95.18 69.87 89.14 53.5 89.3c-19.44.18-37.56 10.69-39.39 31.25-1.49 16.78 9.82 29.57 25.41 33.96 22.92 6.45 47.83-3.92 64.52-20.23q4.91-4.8 9.62-9.98a.69.68-56.1 0 1 .79-.16q35.94 16.63 72.51 31.61l.04 8.36a1.24 1.22-26.8 0 1-.25.74c-.36.48-.45.4-.68 1.01q-6.08 16.43-23.13 21.14H23.69C10.96 183.05 5.18 175.44 0 163.69V24.19Q5.51 5.38 24.31 0Z"/><path fill="#757575" d="M277.96 14.75q-7.8.3-15.52-.62 7.52-.69 15.03-.34a.5.5 0 0 1 .48.49l.01.47Z"/><path fill="#3f3a39" d="m493.25 13.79.05 9.36a.64.63 3.8 0 0 .54.61q.31.04.62-.26l31.83.18a1.73 1.64-26.1 0 1 .92.29c4.28 3.02 2.8 12.08 2.76 16.78a.51.51 0 0 1-.51.5h-17.74a.63.63 0 0 1-.63-.6l-.3-5.9q1.08-.95.93-2.96a1.95 1.93-2.1 0 0-1.94-1.79H457.3a.55.54 81.9 0 0-.52.7q.14.47.41.57l-.23 9.48q-1.45.48-2.96.44-8.15-.22-16.29.06l-.07-16.9a.59.59 0 0 1 .59-.6h34.83a.8.8 0 0 0 .8-.81l-.15-8.62a.53.53 0 0 1 .53-.54l19.01.01Z"/><path fill="#757575" d="m493.25 13.79.47.01a.49.49 0 0 1 .48.48l.26 9.22q-.31.3-.62.26a.64.63 3.8 0 1-.54-.61l-.05-9.36Z"/><path fill="#3f3a39" d="M262.44 14.13q7.72.92 15.52.62l.03 13.49a.51.51 0 0 0 .51.51h37.75a.5.5 0 0 1 .5.49l.01 5.89a1.13 1.13 0 0 1-1.13 1.13l-36.87-.04a.77.76 90 0 0-.76.77V47.5a.5.5 0 0 0 .5.5h32.03a.51.51 0 0 1 .49.65c-4.82 17.05-16.53 32.1-30.77 42.31a.6.59 42.5 0 0 .05 1q17.42 10.14 36.32 17.16a1.3 1.3 0 0 1 .85 1.16l.32 6.23a1.03 1.02-84.7 0 1-1.26 1.05q-25.04-6.03-47.57-18.48a.77.76 45.4 0 0-.74-.01c-15.08 8.05-32.08 15.37-48.94 18.63a.43.42 86.9 0 1-.5-.45l.57-7.67a1.17 1.17 0 0 1 .83-1.03q19.14-5.73 36.29-15.9a1.06 1.05 47.8 0 0 .08-1.76q-15.73-11.54-26.32-27.95a.45.45 0 0 1 .38-.7l15.81.03a1.07 1.06-17.7 0 1 .83.42q8.8 11.74 20.44 20.68a.96.95-46 0 0 1.19-.03q13-10.85 20.13-26.15a1.19 1.18-77.4 0 0-1.07-1.69l-61.69-.04-.17-7.52 31.03.07a.38.38 0 0 0 .38-.38l.01-10.75a.62.62 0 0 0-.62-.63h-36.74a.62.61 89.5 0 1-.61-.61l-.1-6.38a.5.5 0 0 1 .5-.51h37.12a.45.45 0 0 0 .45-.46c-.06-4.2-1.96-14.6 4.94-14.16ZM346.78 43h4.84a.63.62 0 0 1 .63.62V116a.5.5 0 0 1-.5.5h-15.76a.76.76 0 0 1-.76-.76l.06-53.69a1.01 1.01 0 0 0-1-1.01l-11.81-.12q-2.12-.02-1.29-1.96l18.7-44.05a.91.9 9.8 0 1 .79-.55q8.4-.41 16.76.29a.73.73 0 0 1 .6 1.02l-11.71 26.64a.49.49 0 0 0 .45.69ZM419 32.96l-.22.24q-.22.24.11.3 3.33.61 6.91.21l-.12 6.28a.52.51-89.4 0 1-.51.51h-5.6a.65.65 0 0 0-.65.66q.6 44.58-.57 68.59c-.17 3.49-3.62 4.88-6.9 5.11q-10.41.74-20.79-.28a.63.62 3.5 0 1-.56-.63l.1-5.73a.55.55 0 0 1 .51-.54l8.55-.58a2.36 2.35 88 0 0 2.19-2.35l.07-63.74a.51.51 0 0 0-.51-.51h-41.3a.59.59 0 0 1-.59-.58l-.08-5.92 41.57-.18a.73.72-76.8 0 0 .65-.41l.2-.41-.05-16.81a.68.68 0 0 1 .68-.68l15.84-.02a1.07 1.07 0 0 1 1.07 1.07v16.4Z"/><path fill="#fff" d="M186.96 126.75v29q-36.57-14.98-72.51-31.61a.69.68-56.1 0 0-.79.16q-4.71 5.18-9.62 9.98c-16.69 16.31-41.6 26.68-64.52 20.23-15.59-4.39-26.9-17.18-25.41-33.96C15.94 99.99 34.06 89.48 53.5 89.3c16.37-.16 36.65 5.88 53.18 11.27a.66.65 23.3 0 0 .79-.31q6.31-11.88 10.18-24.76a.39.39 0 0 0-.37-.5H45.25a.5.5 0 0 1-.5-.5v-6.38a.63.63 0 0 1 .63-.63l36.27.02a.6.6 0 0 0 .6-.6V54.95a.55.55 0 0 0-.55-.55l-44.47-.2a.48.47 0 0 1-.48-.47v-6.11a.63.63 0 0 1 .63-.63l44.41-.02a.45.45 0 0 0 .45-.45l.1-19.07a2.72 2.71-89.9 0 1 2.71-2.71l18.45.01a.5.5 0 0 1 .5.5v21.1a.67.67 0 0 0 .67.67l44.06-.07a.53.52-90 0 1 .52.53v6.15a.63.62 0 0 1-.63.62h-44.13a.51.51 0 0 0-.51.51l.07 12.14a.6.6 0 0 0 .6.6h35.41a.7.7 0 0 1 .68.86q-4.93 20.15-15.12 38.21a.38.38 0 0 0 .19.54q28.25 11.07 57.55 19.23c1 .28 2.52.29 3.6.41ZM26.43 109.43c-13.08 13.24-2.62 29.59 12.6 33.07 23.82 5.45 44.26-8.09 58.13-26.3a.41.4-57.6 0 0-.13-.61c-19.72-10.18-47.08-21.28-68.32-8.24-.8.49-1.61 1.4-2.28 2.08Z"/><path fill="#757575" d="m510.79 34.75-.41-2.91a.63.62-4.3 0 0-.62-.53l-52.57-.04q-.27-.1-.41-.57a.55.54 81.9 0 1 .52-.7h52.48a1.95 1.93-2.1 0 1 1.94 1.79q.15 2.01-.93 2.96ZM401.46 33l-.2.41a.73.72-76.8 0 1-.65.41l-41.57.18.28-.5a.84.84 0 0 1 .74-.44l41.4-.06Zm17.54-.04q3.58-.48 6.8.75-3.58.4-6.91-.21-.33-.06-.11-.3l.22-.24Zm37.96 7.79q.1.26.04.51a.68.68 0 0 1-.65.49h-18.33a.28.27 85 0 1-.27-.23l-.04-.27q8.14-.28 16.29-.06 1.51.04 2.96-.44Zm-230.88 7.19.17 7.52q-.36.12-.67.05a.84.82-89.5 0 1-.62-.64q-.76-3.78 1.12-6.93Z"/><path fill="#3f3a39" d="m474.51 68.12-.01-11.87a.75.75 0 0 0-.75-.75H438.2a.61.6-90 0 1-.6-.61l.05-6.35a.56.55.5 0 1 .56-.54h91.81a.49.48 2.2 0 1 .49.52l-.34 5.87a.64.63.9 0 1-.63.6l-35.94.55a.61.61 0 0 0-.6.61v12.6a.5.5 0 0 0 .5.5H530a.5.5 0 0 1 .5.5v6.47a.53.53 0 0 1-.53.53h-36.56a.41.41 0 0 0-.41.41v28.72a.63.63 0 0 0 .63.63l17.19-.02a.73.72 81.8 0 0 .69-.93l-4-13.49a.39.39 0 0 1 .31-.49q7.82-1.21 15.69.01c1.57.25 2.36 1.27 2.79 2.65q2.86 9.02 6.19 19.06a.54.53-9.1 0 1-.51.7h-93.7a.49.48 88.8 0 1-.48-.47l-.19-6.52a.5.5 0 0 1 .5-.52l35.74.03a.56.56 0 0 0 .57-.56l.11-28.69a.51.51 0 0 0-.51-.52h-35.67a.72.72 0 0 1-.72-.72l.06-6.25a.53.53 0 0 1 .53-.53h35.16a1.13 1.13 0 0 0 1.13-1.13Zm-94.27-17.19a1.91 1.9-6.5 0 1 1.56 1.23q5.8 15.78 10.64 31.9a.97.96-7.9 0 1-.94 1.24l-15.28-.34a.77.76 81.4 0 1-.71-.53l-10.49-32.71a.59.59 0 0 1 .49-.77q7.37-.95 14.73-.02Z"/><path fill="#0ae" d="M26.43 109.43c.67-.68 1.48-1.59 2.28-2.08 21.24-13.04 48.6-1.94 68.32 8.24a.41.4-57.6 0 1 .13.61c-13.87 18.21-34.31 31.75-58.13 26.3-15.22-3.48-25.68-19.83-12.6-33.07Z"/><path fill="#757575" d="M251 131.29q-1.89 1.15-3.75 0 1.9-.82 3.75 0Z"/><path fill="#3f3a39" d="M301.64 168.25h16.94a.62.62 0 0 1 .62.61l.05 4.5a.62.62 0 0 1-.62.63l-25.01.01a.62.62 0 0 1-.62-.62v-41.89a.62.62 0 0 1 .67-.62l6.37.55a.62.62 0 0 1 .57.61l.41 35.61a.62.62 0 0 0 .62.61Z"/><path fill="#757575" d="m394.25 131.04-.28.33a.94.92-69.1 0 1-.7.32l-6.73.06q3.67-1.46 7.71-.71Zm105.35.56-7.95.32q3.84-2.19 7.95-.32Zm24.83.3q-2.92.24-5.18-.61 2.96-1.42 5.18.61Z"/><path fill="#3f3a39" d="M394.25 131.04c5.02.21 11.51-.16 15.63 1.9 9.84 4.9 9.54 19.18-.66 23.24-3.91 1.56-10.01 1.36-14.77 1.69a.58.57 88.4 0 0-.54.58l.16 14.8a.7.7 0 0 1-.69.7l-6.21.07a.64.64 0 0 1-.65-.64l.02-41.63 6.73-.06a.94.92-69.1 0 0 .7-.32l.28-.33Zm11.74 19.73c4.98-3.18 4.29-9.92-.09-12.54-2.82-1.68-7.87-.92-11.29-1.06a.58.58 0 0 0-.61.58v13.2a.51.51 0 0 0 .5.51c2.72.06 9.31.7 11.49-.69Zm-158.74-19.48q1.86 1.15 3.75 0l.59.27a1.33 1.32-87.9 0 1 .7.76l15.18 40.72a.55.55 0 0 1-.49.74l-6.81.22a.67.66 80.3 0 1-.66-.47l-2.39-7.73a.79.78-8.5 0 0-.75-.55h-14.66a.8.78 9.2 0 0-.75.53l-2.31 6.61a1.98 1.97 9.5 0 1-1.85 1.32l-5.69.04a.73.73 0 0 1-.69-.98l15.16-40.63a.95.94 2.8 0 1 .67-.6l1-.25Zm-4.14 28.2a.58.58 0 0 0 .55.76h10.74a.58.58 0 0 0 .55-.76l-5.37-15.95a.58.58 0 0 0-1.1 0l-5.37 15.95Zm104.55-27.6a.68.68 0 0 1 .69-.66l5.88.07a.62.61 90 0 1 .6.61l.52 41.42a.68.67 90 0 1-.68.69l-6.82-.07a.54.53 89.4 0 1-.53-.53q-.34-20.77.34-41.53Zm104.37-.29q2.56-.76 5.19-.11a1.17 1.14-2.8 0 1 .8.71l15.16 40.85a.52.52 0 0 1-.46.7l-6.68.28a.78.77 79.9 0 1-.78-.55l-2.41-7.69a.78.77-8.7 0 0-.74-.54h-14.74a.82.81-80.4 0 0-.77.55l-2.44 7.12a.82.82 0 0 1-.73.55l-6.73.27a.63.63 0 0 1-.62-.85l15.12-40.51a1.27 1.26-88.1 0 1 .83-.78Zm-3.06 27.34a.56.56 0 0 0 .52.74l10.46.06a.56.56 0 0 0 .53-.74l-5.15-15.26a.56.56 0 0 0-1.06-.01l-5.3 15.21Zm70.28-27.65q2.26.85 5.18.61-5.84 11.57-11.65 22.69c-2.11 4.03-1.03 13.92-.95 18.68a.68.68 0 0 1-.68.7h-6.34a.6.6 0 0 1-.6-.6l.12-16.18q.01-.47-.2-.88l-12.48-24.39 7.95-.32 7.9 16.36q-.56.74.28 1.31a.58.58 0 0 0 .86-.25q.33-.72-.14-1.06 3.67-7.26 7.09-14.63c.8-1.73 1.82-2.29 3.66-2.04Z"/><path fill="#757575" d="M507.5 147.96h1q.47.34.14 1.06a.58.58 0 0 1-.86.25q-.84-.57-.28-1.31Z"/></svg>