<svg width="64" height="64" viewBox="0 0 64 64" fill="none" xmlns="http://www.w3.org/2000/svg">
  <defs>
    <linearGradient id="alipay-ribbon" x1="14" y1="42" x2="56" y2="55" gradientUnits="userSpaceOnUse">
      <stop stop-color="#FFFFFF"/>
      <stop offset="1" stop-color="#B8D2FF"/>
    </linearGradient>
  </defs>
  <rect x="2" y="2" width="60" height="60" rx="12" fill="#1677FF"/>
  <path d="M17.8 18.7C17.8 17.6 18.7 16.7 19.8 16.7H35.3C36.4 16.7 37.3 17.6 37.3 18.7V28.4H17.8V18.7Z" fill="#FFFFFF"/>
  <path d="M14.5 26.7C14.5 25.6 15.4 24.7 16.5 24.7H49.6C50.7 24.7 51.6 25.6 51.6 26.7V28.5C51.6 29.6 50.7 30.5 49.6 30.5H16.5C15.4 30.5 14.5 29.6 14.5 28.5V26.7Z" fill="#FFFFFF"/>
  <path d="M15 34.2C15 33.1 15.9 32.2 17 32.2H37.8C38.9 32.2 39.8 33.1 39.8 34.2V36C39.8 37.1 38.9 38 37.8 38H17C15.9 38 15 37.1 15 36V34.2Z" fill="#FFFFFF"/>
  <path d="M12.5 43.8C18.8 37 31.2 37.8 41.1 46.7L52.2 48.5C53.2 48.7 53.9 49.5 53.9 50.5C53.9 51.7 52.9 52.7 51.7 52.7H42.5C30.4 57 17.1 53.2 12.2 46.7C11.5 45.8 11.6 44.6 12.5 43.8Z" fill="url(#alipay-ribbon)"/>
  <path d="M14.4 45.5C17.8 42.3 23 41.8 27 43.7C29.5 44.8 31.6 46.7 33.7 49.1H24.9C20.5 49.1 16.5 47.8 14.4 45.5Z" fill="#FFFFFF"/>
</svg>
