<svg xmlns="http://www.w3.org/2000/svg" viewBox="0 0 1427 494"><path fill="#1fad4b" d="M136.25 177.52c-5.34-.57-10.15 3.54-10.24 8.89q-.03 2.2 2.06 6.78 23.92 52.47 47.79 104.96 3.61 7.93 6.55 10.84c8.12 8.02 17.01 5.28 26.2-.02Q367.3 217.31 525.82 125.8a1.01 1-31 0 1 1.35.33q13.35 21.34 21.22 45.17 17.41 52.74 5.53 104.62c-20.39 89.07-96.84 152.49-181.68 176.84q-90.07 25.84-180.7 1.37c-9.41-2.54-16.74-3.27-24.62 1.27q-31.73 18.26-63.43 36.59c-5.32 3.07-12.98.02-13.96-6.25q-.38-2.43.94-7.37 6.28-23.43 12.55-46.87c2.76-10.3.93-17.02-7.6-23.21-71.37-51.86-112.65-138.78-88.43-226.3C30.4 97.38 103.83 38.07 185.43 14.13 265.66-9.4 353.33-2.39 427.76 36.29q45.33 23.55 79.01 61.9a1.01 1.01 0 0 1-.35 1.58q-137.39 61.18-274.88 122.35c-16.21 7.22-24.26 5-38.14-4.98q-26.27-18.88-53.33-38.18-1.72-1.22-3.82-1.44Z"/><path fill="#4e4e4e" d="M1166.5 130.19q19.63.12 39.28.04c3.75-.01 6.41 1.77 9.56 3.48a1.01 1 32.9 0 1 .32 1.48l-.57.76q-.09.12-.14.26c-8.67 24.08-28.24 46.6-48.43 61.92a1 .99-47.7 0 0 .07 1.64q17 10.67 36.07 17.87 15.81 5.97 32.17 10.27a1 1 0 0 1 .6 1.48l-4.99 8.27a1.02.99 20 0 1-1.04.47c-26.18-4.89-52-14.69-73.4-30.77a1.01.99-40.7 0 0-1.08-.07q-4.87 2.66-9.71 5.39-30.02 16.93-63.76 25.44a1 1 0 0 1-1.1-.45l-4.98-8.25a1 1 0 0 1 .62-1.49q21.05-5.17 41.29-13.1 13.95-5.46 26.76-13.19a1 1 0 0 0 .13-1.62q-28.42-23.75-44.39-57.08-1.23-2.56-1.29-5.28-.08-3.23.11-6.47a1 1 0 0 1 1-.94h48.9a1 1 0 0 0 1-1V98a1 1 0 0 0-1-1H1070a1 1 0 0 1-1-1v-8a1 1 0 0 1 1-1h78.5a1 1 0 0 0 1-1V62.5a1 1 0 0 1 1-1h8a1 1 0 0 1 1 1V86a1 1 0 0 0 1 1h78.5a1 1 0 0 1 1 1v10a1 1 0 0 1-1 1h-72.5a1 1 0 0 0-1 1v29.19a1 1 0 0 0 1 1Zm-12.39 64.22c18.87-12.03 34.42-32.59 44.17-52.72a1 1 0 0 0-.9-1.44h-87.45a1 1 0 0 0-.9 1.43q15.21 32 43.95 52.7a1.01 1-43.1 0 0 1.13.03ZM693.92 64.47a1.01 1 28.6 0 1 1.41-.41l8.34 4.97a1 .99 29 0 1 .38 1.32q-14.44 27.51-36.24 49.6a1 1 0 0 1-1.57-.19l-4.94-8.22a1.01 1 53.7 0 1 .19-1.26q9.01-8.08 15.95-18.05 9.13-13.1 16.48-27.76Zm106.99 33.19a1 1 0 0 0 .94 1.34h38.9a1 1 0 0 1 1 1v7.96q0 1.14-.6.17l-.26-.41a1.02 1 73.5 0 0-.85-.47h-5.33a1 .99 1.5 0 0-1 .94c-1.6 28.31-7.26 57.04-19.25 82.85a1 1 0 0 0 .02.89q10.91 20.71 28.55 36.11a1 1 0 0 1 .2 1.27l-4.89 8.16a1 1 0 0 1-1.6.16q-9.94-11.06-19.36-22.49-4.67-5.67-8.23-12.01a1 1 0 0 0-1.73-.02q-11.87 19.96-29.91 34.66a1 1 0 0 1-1.49-.26l-4.91-8.26a1.01 1 52.6 0 1 .16-1.23q16.88-16.62 30.5-36.01a1.02 1.01-39.6 0 0 .1-.99q-6.74-15.02-10.15-31-2.73-12.79-4.62-25.69-.35-2.34-1.49-.27l-6.04 10.86q-.84 1.51-1.73.03l-4.77-7.96a1.02 1.01 44.7 0 1-.01-1.02q19.47-33.42 26.92-71.41a1 1 0 0 1 .98-.81h8.2a1 1 0 0 1 .98 1.2q-3.46 16.68-9.23 32.71Zm-4.65 11.69c-2.86 3.37-3.73 5.62-3.38 10.21q2.35 30.47 12.68 59.27.7 1.94 1.49.04 5.26-12.54 8.47-26.87 4.8-21.38 6.11-41.94a1 .99 1.9 0 0-1-1.06h-23.61a1 1 0 0 0-.76.35Zm94.01 22.4c-.12.01-.38.16-.45.28q-7.45 13.77-15.87 26.97a1.01 1.01 0 0 1-1.71-.02l-4.98-8.33a1.01.99-44.5 0 1 .02-1.06c17.25-26.46 29.55-54.79 38.71-84.97a1 1 0 0 1 1.33-.64l8.19 3.29a1.01 1.01 0 0 1 .58 1.24q-6.2 19.49-14.58 38.07-1.01 2.24-1.01 4.66V239.5a1 1 0 0 1-1 1h-8a1 1 0 0 1-1-1l.01-107.55a.21.2-4.8 0 0-.24-.2Zm384.73 2.12q0-3.19-1.51-.38-6.98 13.04-15.03 25.44a1.01 1-43.9 0 1-1.7-.03l-4.93-8.23a.99.98-44 0 1 .02-1.05q25.52-39.67 38.55-85.05a1 .99 19.1 0 1 1.34-.64l8.3 3.39a1 1 0 0 1 .58 1.23q-6.24 19.44-14.61 38.05-1 2.23-1 4.65-.02 64.12 0 128.25a1 1 0 0 1-1 1H1276a1 1 0 0 1-1-1V133.87Zm112.69-17.12h-82.19a1 1 0 0 1-1-1v-8a1 1 0 0 1 1-1h82.25a1 1 0 0 0 1-1V64.76a1 1 0 0 1 1-1l8.25-.01a1 .99 89.7 0 1 1 1v43a1 1 0 0 0 1 1h25.25a1 1 0 0 1 1 1v8a1 1 0 0 1-1 1H1400a1.01 1-89.7 0 0-1 1q-.01 44.33.01 89c0 25.76-11.39 28.45-34.54 27.65a1 1 0 0 1-.97-1v-7.96a1 .99-88.6 0 1 1.04-1c14.91.7 24.09-2.72 24.15-19.17q.16-44.75 0-89.52a1 1 0 0 0-1-1Zm-401.23-29.5h56.29a1 1 0 0 1 1 1v8a1 1 0 0 1-1 1H919a1 1 0 0 1-1-1v-8a1 1 0 0 1 1-1h58.87a1 .99-7.7 0 0 .96-1.26q-2.51-9.16-7.33-17.31a1 1 0 0 1 .49-1.44l7.58-3.01a1 1 0 0 1 1.28.51l7.4 16.01q1.1 2.39-1.26 3.95l-1.08.72q-2.78 1.83.55 1.83ZM746 112.75h16.5a.5.5 0 0 0 .5-.5V79.76a.5.5 0 0 1 .5-.5l9-.02a.5.5 0 0 1 .5.5v42.51a.5.5 0 0 1-.5.5h-64a.5.5 0 0 1-.5-.5v-42.5a.5.5 0 0 1 .5-.5h9a.5.5 0 0 1 .5.5v32.5a.5.5 0 0 0 .5.5H735a.5.5 0 0 0 .5-.5V66a.5.5 0 0 1 .5-.5h9a.5.5 0 0 1 .5.5v46.25a.5.5 0 0 0 .5.5Zm-65.49 50.19q0-2.57-1.46-.45-5.97 8.67-13.18 16.33a1 .99-39.1 0 1-1.58-.16l-5.02-8.33a1.01 1.01 0 0 1 .1-1.17q21.87-25.55 32.61-57.41a1 1 0 0 1 1.46-.54l8.29 4.95a1.01 1 27 0 1 .41 1.25q-4.93 11.73-10.63 23.09-1.01 2.01-1.01 4.22v94.78a1 1 0 0 1-1 1h-8a1 1 0 0 1-1-1l.01-76.56Z"/><rect width="104.26" height="10" x="927.75" y="118.5" fill="#4e4e4e" rx=".59"/><rect width="57.26" height="10" x="710" y="142" fill="#4e4e4e" rx=".6"/><path fill="#4e4e4e" d="M1333.24 144.53a1 .99 60.1 0 1 1.39.38q3.92 7.26 7.51 14.92 6.36 13.54 13.16 26.86a.99.99 0 0 1-.38 1.31l-8.25 4.89a1 1 0 0 1-1.41-.43c-6.64-13.9-12.53-28.47-20.63-41.57a1 1 0 0 1 .34-1.38l8.27-4.98Z"/><rect width="104.24" height="10" x="927.75" y="148" fill="#4e4e4e" rx=".26"/><path fill="#4e4e4e" d="M763 204.75q0 2.19 1.66.75l11.11-9.65a.99.99 0 0 1 1.54.31l3.18 6.3a1 1 0 0 1-.25 1.21l-24.06 20.74a1 1 0 0 1-1.51-.25l-5.16-8.62a1.01 1 51.9 0 1 .14-1.22q3.12-3.16 3.28-6.38.33-6.26-.02-27.21a1 1 0 0 0-1-.98h-27.04a1 .99 88.4 0 0-.99 1.06q.73 12.86-1.96 24.91-3.53 15.82-14.93 28.1a.99.99 0 0 1-1.58-.16l-4.96-8.22a.99.99 0 0 1 .2-1.27c11.61-9.99 15-25.91 13.18-40.49q-.4-3.22.03-12.97a1.01 1-88.5 0 1 1-.96H762a1 1 0 0 1 1 1v34Zm266.99 29.27a.48.48 0 0 1-.48.48h-97.28a.48.48 0 0 1-.48-.48v-56.04a.48.48 0 0 1 .48-.48h97.28a.48.48 0 0 1 .48.48v56.04Zm-10-46.11a.41.41 0 0 0-.41-.41h-77.42a.41.41 0 0 0-.41.41v36.18a.41.41 0 0 0 .41.41h77.42a.41.41 0 0 0 .41-.41v-36.18ZM896.94 387.06c-16.56-14.74-20.21-40.34-16.02-60.88 8.16-40.05 48.85-55.15 84.66-41.27a1 .99 25.4 0 1 .51 1.42l-3.54 6.23a1 1 0 0 1-1.22.44c-21.26-8.13-49.02-5.12-62.54 14.78-9.13 13.43-11.08 33.23-7.52 48.96 7.63 33.74 41.73 42.46 70.78 30.92a1.02 1.01-25.5 0 1 1.24.43l3.39 5.88a1 1 0 0 1-.5 1.43c-22.52 8.87-50.42 8.42-69.24-8.34Zm96.5-60.73q4.79-6.48 12.09-9.83c23.6-10.84 43.33 6.47 43.42 30.31q.1 25.73.03 51.44a1 1 0 0 1-1 1h-7.97a1 1 0 0 1-1-1l-.06-48.75c-.02-12.96-5.11-26.7-20.22-27.22-13.03-.45-26.3 10.41-26.46 24.04q-.29 25.96-.27 51.93a1 1 0 0 1-1 1h-7.75a1 1 0 0 1-1-1V281a1 1 0 0 1 1-1H991a1 1 0 0 1 1 1v44.86q0 2.42 1.44.47Zm234.47 24.1a1 1 0 0 0-1.16.99v46.83a1 1 0 0 1-1 1h-8a1 1 0 0 1-1-1V284.49a1 1 0 0 1 .8-.98q19.13-3.85 36.36-1.49c38.4 5.26 38.39 57.08 2.82 66.89q-14.23 3.93-28.82 1.52Zm-.39-9.04q13.66 3.22 26.51-.53 6.94-2.03 11.01-5.8c14.01-12.96 9.25-39.04-10.32-43.79q-12.92-3.13-27.16-.37a1 1 0 0 0-.81.98v48.54a1 1 0 0 0 .77.97ZM725.78 297.7c-5.81 26.05-15.96 56.95-29.03 100.84a1.01 1-81.4 0 1-.96.71h-7.54a1.01 1-7.5 0 1-.97-.74l-30.41-115.26a1 1 0 0 1 .97-1.25h8.06a1.01 1 82.5 0 1 .97.75q12.43 47.58 24.25 95.27.34 1.38.64 2.7.74 3.26 1.56.02 3.24-12.79 7-25.42c7.19-24.16 14.12-48.4 21.16-72.6a1 1 0 0 1 .96-.72h7.66a1 .99 82.4 0 1 .96.74q11.48 42.77 22.43 84.8.84 3.22 1.81 7.97.5 2.39 1.04 4.77.74 3.22 1.56.02 3.58-14.1 7.62-28.04 10.06-34.8 20.32-69.54a1 1 0 0 1 .96-.72h8.07a1.01 1-81.8 0 1 .96 1.29l-34.5 115.25a1.01 1-81.4 0 1-.96.71h-7.76a1.01 1 82.5 0 1-.97-.75q-10.53-40.51-21.09-81.01-2.25-8.65-4.26-19.8-.04-.25-.32-.19a.28.26-89.5 0 0-.19.2Zm417.66 25.8h-11.94a1 1 0 0 1-1-1v-6.25a1 1 0 0 1 1-1h11.75a1 1 0 0 0 1-1v-16.5a1 1 0 0 1 1-1h8a1 1 0 0 1 1 1v16.5a1 1 0 0 0 1 1h21.5a1 1 0 0 1 1 1v6.5a1 1 0 0 1-1 1h-21.47a1 1 0 0 0-1 1q-.07 26.39-.04 52.74c.01 12.52 6.15 16.68 17.91 14.48a1 .99 69 0 1 1.04.47l3.22 5.33a1 .99-26.1 0 1-.5 1.44q-8.97 3.49-17.17 1.33c-11.55-3.04-14.23-14.01-14.22-24.51q.01-25.76-.08-51.53a1 1 0 0 0-1-1Zm-282.38 72.43c-25.62 10.9-57.62 5.69-64.13-26.08-5.47-26.69 8.18-59.82 40.76-56.24 22.23 2.45 29.8 23.12 28.65 42.7a.99.99 0 0 1-.99.94h-58.88a1 1 0 0 0-1 1.01q.06 6 1.59 11.71c6.38 23.93 30.14 26.38 49.91 18.55a.99.99 0 0 1 1.22.42l3.33 5.55a1.01 1 63 0 1-.46 1.44Zm-13.86-68.87q-3.81-3.54-7.7-4.32-19.84-3.97-29.28 13.21-3.06 5.58-4.04 11.9a1 1 0 0 0 .99 1.15h47.88a1 1 0 0 0 1-.99q.15-12.6-8.85-20.95Zm264.75 63.64q-11.72 12.26-28.61 10.44c-18.47-1.99-26.54-22.16-17.29-37.34 7.24-11.88 24.55-16.16 37.65-16.59q4.09-.14 8.19-.5a1 .99 86.4 0 0 .91-1.04q-.27-6.38-1.02-9.21-3.73-14.22-18.79-14.37-10.53-.1-19.53 5.22a1 1 0 0 1-1.38-.36l-3.02-5.32a.99.99 0 0 1 .35-1.35q13.18-7.97 27.94-6.51c20.6 2.05 25.28 17.34 25.37 35.34.09 16.15-1.09 33.26 1.1 49.26a1 1 0 0 1-.99 1.13h-7.36a1 .99-2.9 0 1-.99-.89l-.81-7.33q-.24-2.13-1.72-.58Zm-35.21-2.58c14.54 11.72 36.12-.51 36.05-18.07q-.03-6.85-.13-13.7a1 1 0 0 0-.93-.98q-15.27-1.08-27.91 4.17c-11.36 4.72-14.37 18.8-7.25 28.4q.07.1.17.18Zm257.24-42.4q.19-6.35-1.22-10.73-4.01-12.36-17.29-12.92-10.53-.43-19.75 4.57a.99.99 0 0 1-1.34-.38l-2.96-5.17a1 1 0 0 1 .37-1.36q15.41-8.9 31.96-5.04c15.73 3.68 20.18 17.45 20.22 31.88q.06 19.33.03 38.68-.01 3.88 1.12 13.13a1 1 0 0 1-.99 1.12h-7.38a1.01 1 87.2 0 1-1-.91l-.71-7.6q-.21-2.3-1.74-.57-7.08 8-17.98 10.21c-17.83 3.61-33.6-7.27-31.39-26.46 1.73-14.97 14.38-22.5 28.1-25.31q10.36-2.11 20.95-2.17a1.01 1 .6 0 0 1-.97Zm-35.19 18.39c-11.3 11.78-2.25 31.81 15.51 28.37 11.42-2.21 19.76-10.59 19.74-22.38q-.02-6.88-.13-13.75a1.01 1 1.2 0 0-.94-.98q-10.25-.7-20.02 1.74-9.79 2.44-14.16 7Zm90.2 18.88q.69 2.28 1.52.06l25-66.9a1.01 1-79.4 0 1 .94-.65h8.38a.99.99 0 0 1 .92 1.37q-15.07 37.51-30.19 74.94c-7.64 18.92-16.21 36.5-35.6 44.98a1 1 0 0 1-1.26-.41l-3.62-6.13a1 1 0 0 1 .47-1.43q9.02-3.81 14.13-9.15 9.43-9.88 14.36-23.18a.99.93-47.4 0 0-.01-.72l-31.59-79.16a1 1 0 0 1 .93-1.37l8.51.05a1.01.99-10.8 0 1 .93.62q10.42 25.89 20.82 51.75 3.04 7.56 5.36 15.33Z"/></svg>